<svg xmlns="http://www.w3.org/2000/svg" viewBox="130 100 525 400"><path d="M137 190v103h29.441c16.193 0 29.623.337 29.844.75.222.413-4.019 21.9-9.425 47.75-5.406 25.85-9.836 47.337-9.845 47.75-.008.413 16.105.75 35.807.75h35.821l73.319-69.25 73.319-69.25-35.707-.263c-19.638-.144-36.298.081-37.02.5-.723.42-16.781 15.4-35.684 33.289-42.94 40.636-44.812 42.366-45.301 41.875-.22-.22 3.372-18.401 7.983-40.401 4.611-22 8.398-40.787 8.416-41.75.03-1.634-2.313-1.75-35.468-1.75H187V137h102.84c99.141 0 103.118.071 110.564 1.975 16.656 4.26 29.944 14.836 37.354 29.731 6.405 12.875 6.294 11.148 6.005 93.64l-.263 74.846-13 5.242c-64 25.802-110.517 57.881-124.728 86.014-10.798 21.376-12.229 42.816-4.388 65.757 8.714 25.494 28.744 44.171 55.616 51.859 10.621 3.039 32.249 3.773 44.312 1.505 48.465-9.112 84.758-48.674 91.637-99.891.578-4.303 1.058-22.528 1.066-40.5.009-17.973.346-33.142.75-33.708.404-.567 7.26-3.884 15.235-7.372 90.944-39.775 134.655-84.241 141.032-143.469 6.931-64.37-50.303-119.459-133.532-128.526-16.65-1.814-25.5-2.204-25.5-1.123 0 .565 7.454 12.21 16.565 25.879l16.565 24.853 8.685.597c32.495 2.234 58.571 23.325 65.796 53.219 9.394 38.866-13.503 74.56-66.283 103.33-12.888 7.025-32.259 15.978-36.332 16.793l-2.907.581-.319-70.366-.319-70.366-2.657-9.706c-12.066-44.083-48.244-75.03-93.294-79.805-5.203-.552-62.051-.962-134.75-.972L137 87v103m105.791-14.012c-13.624 4.107-16.984 22.709-5.65 31.286 9.2 6.961 21.202 4.577 26.762-5.316 7.969-14.179-5.453-30.69-21.112-25.97m57.893.461c-16.263 5.8-15.031 29.197 1.794 34.088 21.069 6.125 31.987-24.433 12.022-33.647-4.725-2.181-8.593-2.304-13.816-.441m58.971.01c-14.749 5.259-15.491 25.847-1.187 32.947 16.46 8.17 33.171-12.391 21.988-27.052-4.9-6.425-12.932-8.701-20.801-5.895M430 395.868c-65.32 27.33-91.965 54.8-81.003 83.513 4.768 12.49 14.3 18.781 29.447 19.434 29.929 1.29 54.621-17.582 63.214-48.315 2.278-8.15 3.295-59.517 1.177-59.472-.734.016-6.51 2.194-12.835 4.84" fill-rule="evenodd"/></svg>